<svg width="125" height="110" viewBox="0 0 125 110" fill="none" xmlns="http://www.w3.org/2000/svg" >
<g clip-path="url(#clip0_571_372)">
<path d="M110.097 11.974C110.097 12.761 109.785 13.5158 109.23 14.0725C108.676 14.6292 107.923 14.9422 107.138 14.9427C106.353 14.9427 105.6 14.6299 105.044 14.0731C104.489 13.5164 104.177 12.7613 104.177 11.974C104.178 11.1869 104.49 10.4323 105.045 9.87594C105.6 9.3196 106.353 9.00708 107.138 9.00708C107.923 9.00757 108.675 9.3203 109.23 9.87659C109.785 10.4329 110.097 11.1872 110.097 11.974Z" fill="#222222"/>
<path d="M99.9862 11.974C99.9862 12.7613 99.6742 13.5164 99.119 14.0731C98.5637 14.6299 97.8106 14.9427 97.0254 14.9427C96.2417 14.9402 95.491 14.6264 94.9377 14.0699C94.3844 13.5134 94.0737 12.7597 94.0737 11.974C94.0742 11.1872 94.3861 10.4329 94.9409 9.87659C95.4957 9.3203 96.2481 9.00757 97.0327 9.00708C97.8176 9.00708 98.5704 9.3196 99.1256 9.87594C99.6809 10.4323 99.993 11.1869 99.9935 11.974" fill="#222222"/>
<path d="M89.8733 11.974C89.8735 12.3637 89.7971 12.7497 89.6486 13.1099C89.5 13.4701 89.282 13.7973 89.0072 14.073C88.7324 14.3487 88.4062 14.5674 88.0471 14.7166C87.6879 14.8659 87.303 14.9427 86.9143 14.9427C86.5256 14.9427 86.1406 14.8659 85.7815 14.7166C85.4224 14.5674 85.0961 14.3487 84.8213 14.073C84.5465 13.7973 84.3286 13.4701 84.18 13.1099C84.0315 12.7497 83.9551 12.3637 83.9553 11.974C83.9553 11.1871 84.2671 10.4325 84.822 9.87606C85.3769 9.31966 86.1295 9.00708 86.9143 9.00708C87.6991 9.00708 88.4517 9.31966 89.0066 9.87606C89.5615 10.4325 89.8733 11.1871 89.8733 11.974Z" fill="#222222"/>
<path d="M123.167 23.9479C122.682 23.9479 122.216 23.7545 121.872 23.4102C121.529 23.0659 121.336 22.5989 121.336 22.112V6.78194C121.333 5.95957 121.007 5.17157 120.428 4.58921C119.849 4.00684 119.064 3.67718 118.243 3.67187H6.76205C5.94061 3.67525 5.15381 4.00406 4.57313 4.58664C3.99246 5.16921 3.66498 5.95831 3.66209 6.78194V22.112C3.66209 22.5989 3.46919 23.0659 3.1258 23.4102C2.78241 23.7545 2.31667 23.9479 1.83105 23.9479C1.34542 23.9479 0.879693 23.7545 0.536305 23.4102C0.192917 23.0659 0 22.5989 0 22.112V6.78194C0.00290386 4.98447 0.716213 3.26142 1.98366 1.99025C3.25111 0.71907 4.96937 0.00339827 6.76205 0H118.243C120.036 0.00339827 121.754 0.71907 123.022 1.99025C124.289 3.26142 125.003 4.98447 125.006 6.78194V22.112C125.006 22.3537 124.958 22.593 124.865 22.8163C124.773 23.0395 124.637 23.2422 124.467 23.4128C124.296 23.5834 124.093 23.7185 123.87 23.8103C123.647 23.9021 123.408 23.9489 123.167 23.9479Z" fill="#222222"/>
<path d="M1.83105 89.0666C1.34542 89.0666 0.879693 88.8732 0.536305 88.5289C0.192917 88.1846 0 87.7176 0 87.2307V22.1138C0 21.6268 0.192917 21.1599 0.536305 20.8156C0.879693 20.4713 1.34542 20.2778 1.83105 20.2778H123.167C123.653 20.2778 124.118 20.4713 124.462 20.8156C124.805 21.1599 124.998 21.6268 124.998 22.1138V33.6545C124.998 34.1414 124.805 34.6083 124.462 34.9527C124.118 35.297 123.653 35.4904 123.167 35.4904C122.682 35.4904 122.216 35.297 121.872 34.9527C121.529 34.6083 121.336 34.1414 121.336 33.6545V23.9497H3.66209V87.2307C3.66209 87.7176 3.46919 88.1846 3.1258 88.5289C2.78241 88.8732 2.31667 89.0666 1.83105 89.0666Z" fill="#222222"/>
<path d="M118.243 110H6.76205C4.96968 109.997 3.2517 109.281 1.9843 108.01C0.716903 106.74 0.00338777 105.017 0 103.22V95.7973C0 95.3104 0.192917 94.8434 0.536305 94.4991C0.879693 94.1548 1.34542 93.9614 1.83105 93.9614C2.31667 93.9614 2.78241 94.1548 3.1258 94.4991C3.46919 94.8434 3.66209 95.3104 3.66209 95.7973V103.22C3.66258 104.044 3.98933 104.834 4.57058 105.417C5.15183 106 5.94004 106.328 6.76205 106.328H118.243C119.065 106.328 119.854 106 120.435 105.417C121.016 104.834 121.343 104.044 121.343 103.22V42.2229C121.343 41.736 121.536 41.269 121.88 40.9247C122.223 40.5804 122.689 40.387 123.174 40.387C123.66 40.387 124.126 40.5804 124.469 40.9247C124.813 41.269 125.006 41.736 125.006 42.2229V103.22C125.002 105.017 124.289 106.74 123.021 108.01C121.754 109.281 120.036 109.997 118.243 110Z" fill="#222222"/>
<path d="M93.5976 66.9768H72.5991C72.1135 66.9768 71.6478 66.7834 71.3044 66.4391C70.961 66.0948 70.7681 65.6278 70.7681 65.1409C70.7681 64.6539 70.961 64.187 71.3044 63.8427C71.6478 63.4984 72.1135 63.3049 72.5991 63.3049H93.5976C94.0832 63.3049 94.5489 63.4984 94.8923 63.8427C95.2357 64.187 95.4286 64.6539 95.4286 65.1409C95.4286 65.6278 95.2357 66.0948 94.8923 66.4391C94.5489 66.7834 94.0832 66.9768 93.5976 66.9768Z" fill="#222222"/>
<path d="M104.672 102.089H41.5373C41.0517 102.089 40.586 101.896 40.2426 101.551C39.8992 101.207 39.7063 100.74 39.7063 100.253V65.1409C39.7063 64.6539 39.8992 64.187 40.2426 63.8427C40.586 63.4984 41.0517 63.3049 41.5373 63.3049H64.0592C64.5448 63.3049 65.0106 63.4984 65.3539 63.8427C65.6973 64.187 65.8903 64.6539 65.8903 65.1409C65.8903 65.6278 65.6973 66.0948 65.3539 66.4391C65.0106 66.7834 64.5448 66.9768 64.0592 66.9768H43.3684V98.4172H102.841V77.0083C102.841 76.5214 103.034 76.0544 103.377 75.7101C103.72 75.3658 104.186 75.1724 104.672 75.1724C105.157 75.1724 105.623 75.3658 105.967 75.7101C106.31 76.0544 106.503 76.5214 106.503 77.0083V100.253C106.503 100.74 106.31 101.207 105.967 101.551C105.623 101.896 105.157 102.089 104.672 102.089Z" fill="#222222"/>
<path d="M64.0537 94.1762C63.6815 94.1763 63.3181 94.0627 63.0119 93.8505C62.7057 93.6383 62.4713 93.3375 62.3399 92.9883L56.7662 78.1779L51.1394 92.9939C50.9665 93.4489 50.6204 93.8164 50.1772 94.0156C49.7341 94.2148 49.2302 94.2293 48.7764 94.0559C48.3226 93.8826 47.956 93.5356 47.7574 93.0913C47.5587 92.6469 47.5442 92.1417 47.7171 91.6867L54.6751 73.3732L54.6916 73.331C54.86 72.9162 55.1482 72.5613 55.5191 72.3117C55.89 72.0621 56.3268 71.9293 56.7735 71.9302C57.2195 71.9291 57.6557 72.0615 58.0262 72.3104C58.3968 72.5593 58.6848 72.9134 58.8535 73.3273C58.8535 73.3439 58.8682 73.3622 58.8737 73.3787L65.7676 91.6922C65.8525 91.9178 65.8923 92.1581 65.8847 92.3992C65.877 92.6402 65.822 92.8775 65.7229 93.0972C65.6238 93.317 65.4824 93.515 65.3069 93.68C65.1314 93.845 64.9252 93.9737 64.7001 94.0587C64.4933 94.1361 64.2744 94.1759 64.0537 94.1762Z" fill="#222222"/>
<path d="M61.9185 89.6157H51.5933C51.1076 89.6157 50.6419 89.4223 50.2985 89.078C49.9551 88.7337 49.7622 88.2667 49.7622 87.7798C49.7622 87.2929 49.9551 86.8259 50.2985 86.4816C50.6419 86.1373 51.1076 85.9438 51.5933 85.9438H61.9149C62.4005 85.9438 62.8662 86.1373 63.2096 86.4816C63.553 86.8259 63.7459 87.2929 63.7459 87.7798C63.7459 88.2667 63.553 88.7337 63.2096 89.078C62.8662 89.4223 62.4005 89.6157 61.9149 89.6157H61.9185Z" fill="#222222"/>
<path d="M93.2899 94.1467C92.2786 94.1572 91.2764 93.9559 90.3472 93.5556C89.418 93.1554 88.5824 92.5651 87.8938 91.8224C87.5675 91.4616 87.3974 90.9856 87.4211 90.4991C87.4448 90.0126 87.6603 89.5555 88.0201 89.2283C88.38 88.901 88.8547 88.7306 89.3399 88.7543C89.8252 88.7781 90.2811 88.9941 90.6074 89.3549C90.9541 89.7159 91.3712 90.0016 91.8326 90.1943C92.2941 90.387 92.7901 90.4824 93.2899 90.4749C94.2933 90.4749 94.8682 89.8745 94.9378 89.4688C95.0221 88.9969 94.3336 88.5618 93.6561 88.314C91.847 87.6438 90.2394 86.926 90.1771 86.8966C90.0888 86.8567 90.0038 86.81 89.9226 86.7571C89.2639 86.331 88.7423 85.723 88.4206 85.0063C88.099 84.2896 87.9911 83.4949 88.1099 82.718C88.3534 81.0161 89.5875 79.6318 91.3325 79.1049C94.0168 78.2934 96.518 79.5804 97.5727 80.469L95.2161 83.2798L95.229 83.2908C95.2162 83.2798 93.8355 82.1893 92.389 82.6207C92.0228 82.7327 91.7738 82.9585 91.7335 83.2394C91.7223 83.3054 91.727 83.3731 91.747 83.437C91.7671 83.5008 91.802 83.559 91.8489 83.6066C92.3048 83.8067 93.5719 84.352 94.9287 84.8532C98.0763 86.0172 98.8581 88.3268 98.5432 90.1003C98.1293 92.454 95.9193 94.1467 93.2899 94.1467Z" fill="#222222"/>
<path d="M81.7361 94.1486C81.2505 94.1486 80.7847 93.9551 80.4413 93.6108C80.0979 93.2665 79.905 92.7996 79.905 92.3126V74.8511C79.905 74.3642 80.0979 73.8972 80.4413 73.5529C80.7847 73.2086 81.2505 73.0151 81.7361 73.0151C82.2217 73.0151 82.6874 73.2086 83.0308 73.5529C83.3742 73.8972 83.5671 74.3642 83.5671 74.8511V92.3126C83.5671 92.7996 83.3742 93.2665 83.0308 93.6108C82.6874 93.9551 82.2217 94.1486 81.7361 94.1486Z" fill="#222222"/>
<path d="M75.8968 94.1466C74.3798 94.1466 72.8968 93.6955 71.6355 92.8505C70.3741 92.0054 69.391 90.8043 68.8104 89.399C68.2299 87.9937 68.078 86.4473 68.3739 84.9555C68.6699 83.4636 69.4004 82.0933 70.4731 81.0177C71.5458 79.9421 72.9125 79.2097 74.4004 78.9129C75.8883 78.6162 77.4305 78.7685 78.8321 79.3506C80.2337 79.9327 81.4316 80.9184 82.2744 82.1831C83.1172 83.4479 83.5671 84.9348 83.5671 86.4559C83.5646 88.4948 82.7557 90.4496 81.3178 91.8913C79.8799 93.3331 77.9303 94.1442 75.8968 94.1466ZM75.8968 82.437C75.1041 82.437 74.3291 82.6727 73.67 83.1143C73.0109 83.5559 72.4971 84.1836 72.1938 84.9179C71.8904 85.6523 71.811 86.4603 71.9657 87.2399C72.1203 88.0195 72.5021 88.7356 73.0626 89.2976C73.6232 89.8597 74.3374 90.2424 75.1149 90.3975C75.8924 90.5526 76.6983 90.473 77.4307 90.1688C78.1631 89.8646 78.7891 89.3495 79.2295 88.6886C79.6699 88.0277 79.905 87.2507 79.905 86.4559C79.9035 85.3904 79.4808 84.3691 78.7294 83.6157C77.9781 82.8623 76.9594 82.4385 75.8968 82.437Z" fill="#222222"/>
<path d="M104.672 78.8443C102.115 78.8443 99.6149 78.084 97.4887 76.6596C95.3626 75.2351 93.7054 73.2105 92.7269 70.8417C91.7483 68.4729 91.4922 65.8664 91.9911 63.3517C92.49 60.837 93.7213 58.5272 95.5295 56.7142C97.3377 54.9012 99.6414 53.6665 102.149 53.1663C104.657 52.6661 107.257 52.9229 109.619 53.904C111.982 54.8852 114.001 56.5468 115.422 58.6786C116.842 60.8105 117.601 63.3168 117.601 65.8808C117.597 69.3179 116.234 72.6132 113.81 75.0436C111.386 77.474 108.1 78.8409 104.672 78.8443ZM104.672 56.5891C102.839 56.5891 101.047 57.1341 99.5233 58.155C97.9993 59.176 96.8116 60.6272 96.1102 62.325C95.4088 64.0228 95.2253 65.8911 95.5828 67.6935C95.9404 69.4959 96.823 71.1515 98.119 72.451C99.415 73.7504 101.066 74.6354 102.864 74.9939C104.661 75.3524 106.525 75.1684 108.218 74.4652C109.911 73.7619 111.359 72.571 112.377 71.0429C113.395 69.5149 113.939 67.7185 113.939 65.8808C113.936 63.4174 112.958 61.0557 111.221 59.3138C109.484 57.5719 107.129 56.592 104.672 56.5891Z" fill="#222222"/>
<path d="M102.405 69.9895C102.043 69.9897 101.689 69.8823 101.387 69.6807C101.086 69.4791 100.851 69.1924 100.712 68.8569C100.573 68.5214 100.537 68.1522 100.608 67.7959C100.678 67.4397 100.853 67.1124 101.109 66.8555L105.644 62.3097C105.989 61.9655 106.455 61.7726 106.942 61.7734C107.428 61.7743 107.894 61.9689 108.238 62.3143C108.581 62.6598 108.774 63.1279 108.773 63.6156C108.772 64.1033 108.578 64.5707 108.233 64.9149L103.7 69.4625C103.354 69.8028 102.889 69.9923 102.405 69.9895Z" fill="#222222"/>
<path d="M106.939 69.9896C106.698 69.9902 106.46 69.943 106.237 69.8507C106.015 69.7584 105.814 69.6227 105.644 69.4517L101.108 64.9151C100.938 64.7445 100.804 64.542 100.712 64.3192C100.62 64.0964 100.572 63.8576 100.573 63.6164C100.573 63.1294 100.766 62.6624 101.109 62.3181C101.453 61.9739 101.919 61.7806 102.405 61.7808C102.89 61.7809 103.356 61.9746 103.699 62.3191L108.233 66.8648C108.489 67.1216 108.663 67.4487 108.734 67.8048C108.805 68.1609 108.768 68.5299 108.63 68.8654C108.491 69.2008 108.257 69.4875 107.956 69.6892C107.655 69.891 107.301 69.9987 106.939 69.9988V69.9896Z" fill="#222222"/>
<path d="M99.2446 39.7755H25.7519C25.2663 39.7755 24.8006 39.5821 24.4572 39.2378C24.1138 38.8935 23.9209 38.4265 23.9209 37.9396V30.0322C23.9209 29.5453 24.1138 29.0783 24.4572 28.734C24.8006 28.3897 25.2663 28.1963 25.7519 28.1963H99.2446C99.7303 28.1963 100.196 28.3897 100.539 28.734C100.883 29.0783 101.076 29.5453 101.076 30.0322V37.9451C101.074 38.4311 100.881 38.8966 100.537 39.2397C100.194 39.5829 99.7293 39.7755 99.2446 39.7755ZM27.583 36.1037H97.4136V31.8682H27.583V36.1037Z" fill="#222222"/>
<path d="M73.8443 59.062H9.72289C9.23727 59.062 8.77153 58.8686 8.42814 58.5243C8.08475 58.18 7.89185 57.713 7.89185 57.2261C7.89185 56.7392 8.08475 56.2722 8.42814 55.9279C8.77153 55.5836 9.23727 55.3901 9.72289 55.3901H73.8443C74.3299 55.3901 74.7956 55.5836 75.139 55.9279C75.4824 56.2722 75.6753 56.7392 75.6753 57.2261C75.6753 57.713 75.4824 58.18 75.139 58.5243C74.7956 58.8686 74.3299 59.062 73.8443 59.062Z" fill="#222222"/>
<path d="M73.8441 51.1455H26.9858C26.5002 51.1455 26.0345 50.9521 25.6911 50.6078C25.3477 50.2635 25.1548 49.7965 25.1548 49.3096C25.1548 48.8226 25.3477 48.3557 25.6911 48.0114C26.0345 47.6671 26.5002 47.4736 26.9858 47.4736H73.8441C74.3298 47.4736 74.7955 47.6671 75.1389 48.0114C75.4823 48.3557 75.6752 48.8226 75.6752 49.3096C75.6752 49.7965 75.4823 50.2635 75.1389 50.6078C74.7955 50.9521 74.3298 51.1455 73.8441 51.1455Z" fill="#222222"/>
<path d="M33.6492 66.9748H9.72289C9.23727 66.9748 8.77153 66.7814 8.42814 66.4371C8.08475 66.0928 7.89185 65.6258 7.89185 65.1389C7.89185 64.652 8.08475 64.185 8.42814 63.8407C8.77153 63.4964 9.23727 63.303 9.72289 63.303H33.6492C34.1348 63.303 34.6005 63.4964 34.9439 63.8407C35.2873 64.185 35.4802 64.652 35.4802 65.1389C35.4802 65.6258 35.2873 66.0928 34.9439 66.4371C34.6005 66.7814 34.1348 66.9748 33.6492 66.9748Z" fill="#222222"/>
<path d="M33.6492 74.8877H9.72289C9.23727 74.8877 8.77153 74.6943 8.42814 74.35C8.08475 74.0057 7.89185 73.5387 7.89185 73.0518C7.89185 72.5648 8.08475 72.0979 8.42814 71.7536C8.77153 71.4092 9.23727 71.2158 9.72289 71.2158H33.6492C34.1348 71.2158 34.6005 71.4092 34.9439 71.7536C35.2873 72.0979 35.4802 72.5648 35.4802 73.0518C35.4802 73.5387 35.2873 74.0057 34.9439 74.35C34.6005 74.6943 34.1348 74.8877 33.6492 74.8877Z" fill="#222222"/>
<path d="M21.3134 82.8005H9.72289C9.23727 82.8005 8.77153 82.6071 8.42814 82.2628C8.08475 81.9185 7.89185 81.4515 7.89185 80.9646C7.89185 80.4777 8.08475 80.0107 8.42814 79.6664C8.77153 79.3221 9.23727 79.1287 9.72289 79.1287H21.3134C21.799 79.1287 22.2648 79.3221 22.6082 79.6664C22.9515 80.0107 23.1445 80.4777 23.1445 80.9646C23.1445 81.4515 22.9515 81.9185 22.6082 82.2628C22.2648 82.6071 21.799 82.8005 21.3134 82.8005Z" fill="#222222"/>
</g>
<defs>
<clipPath id="clip0_571_372">
<rect width="125" height="110" fill="white"/>
</clipPath>
</defs>
</svg>
